<?xml version="1.0" standalone="no"?><!DOCTYPE svg PUBLIC "-//W3C//DTD SVG 1.1//EN" "http://www.w3.org/Graphics/SVG/1.1/DTD/svg11.dtd"><svg t="1664978169290" class="icon" viewBox="0 0 1024 1024" version="1.1" xmlns="http://www.w3.org/2000/svg" p-id="3890" xmlns:xlink="http://www.w3.org/1999/xlink" width="200" height="200"><path d="M515.069851 778.309583c-7.572299 0-15.04227-2.148896-21.488958-6.139702C375.698611 698.186469 358.916758 635.97082 357.177176 612.74228c-0.409313-3.479165-0.61397-7.265314-0.61397-10.949135 0-57.303887 46.354752-103.965624 103.351654-103.965624 19.44239 0 38.680124 5.62806 55.154991 16.065554 16.474868-10.437494 35.712601-16.065554 55.154992-16.065554 56.996902 0 103.351654 46.661737 103.351653 103.965624 0 3.274508-0.204657 6.651344-0.511641 10.232837-1.739582 28.958929-21.898271 87.90007-136.403718 160.041571-6.446687 4.093135-13.81433 6.242031-21.591286 6.24203z m-55.154991-252.444089c-41.44299 0-75.211352 34.075347-75.211352 75.927651 0 2.660538 0.204657 5.423404 0.511641 8.288598 0.818627 11.153792 10.437494 67.434396 123.408015 138.245628 3.888478 2.455881 9.209553 2.455881 13.098031 0C632.747477 678.232437 644.105926 624.817028 645.026881 610.081743v-0.511642c0.306985-2.762866 0.409313-5.321075 0.409314-7.776956 0-41.852303-33.768362-75.927651-75.211352-75.927651-16.781853 0-33.25672 5.730389-46.45708 16.167883l-8.697912 6.856-8.697911-6.856c-13.20036-10.437494-29.675227-16.167882-46.45708-16.167883z" p-id="3891"></path><path d="M769.355851 920.853003h-508.572c-41.647647 0-75.620666-33.870691-75.620665-75.620666V434.48626c0-11.665434 9.41421-21.079644 21.079644-21.079645s21.079644 9.41421 21.079644 21.079645v410.746077c0 18.419107 15.04227 33.461377 33.461377 33.461377h508.674328c18.419107 0 33.461377-15.04227 33.461377-33.461377V434.48626c0-11.665434 9.41421-21.079644 21.079645-21.079645 11.665434 0 21.079644 9.41421 21.079644 21.079645v410.746077c-0.102328 41.749975-33.973019 75.620666-75.722994 75.620666z" p-id="3892"></path><path d="M936.662736 561.578095c-5.423404 0-10.744479-2.046567-14.939942-6.139702L509.953433 143.566703 108.416908 545.103228c-8.18627 8.18627-21.591286 8.18627-29.777556 0s-8.18627-21.591286 0-29.777556l416.476467-416.476466c8.18627-8.18627 21.591286-8.18627 29.777556 0l426.709303 426.709303c8.18627 8.18627 8.18627 21.591286 0 29.777556-4.195463 4.195463-9.516538 6.242031-14.939942 6.24203z" p-id="3893"></path></svg>