<?xml version="1.0" standalone="no"?><!DOCTYPE svg PUBLIC "-//W3C//DTD SVG 1.1//EN" "http://www.w3.org/Graphics/SVG/1.1/DTD/svg11.dtd"><svg t="1585495549880" class="icon" viewBox="0 0 1024 1024" version="1.1" xmlns="http://www.w3.org/2000/svg" p-id="8525" xmlns:xlink="http://www.w3.org/1999/xlink" width="200" height="200"><defs><style type="text/css"></style></defs><path d="M234.666667 640v149.333333h159.978666v64H234.666667a64 64 0 0 1-64-64v-149.333333h64z m618.666666 0v149.333333a64 64 0 0 1-64 64h-160.021333v-64H789.333333v-149.333333h64z m-85.333333-160v64H256v-64h512zM789.333333 170.666667a64 64 0 0 1 64 64v149.333333h-64v-149.333333h-160V170.666667H789.333333zM394.666667 170.666667v64H234.666667v149.333333H170.666667v-149.333333a64 64 0 0 1 64-64h160z" p-id="8526"></path></svg>