<?xml version="1.0" standalone="no"?><!DOCTYPE svg PUBLIC "-//W3C//DTD SVG 1.1//EN" "http://www.w3.org/Graphics/SVG/1.1/DTD/svg11.dtd"><svg t="1664978292512" class="icon" viewBox="0 0 1024 1024" version="1.1" xmlns="http://www.w3.org/2000/svg" p-id="4667" xmlns:xlink="http://www.w3.org/1999/xlink" width="200" height="200"><path d="M661.333333 853.333333c-93.866667 0-170.666667-74.666667-170.666666-166.4V337.066667c0-68.266667-57.6-123.733333-128-123.733334s-128 55.466667-128 123.733334V661.333333H192V337.066667C192 245.333333 268.8 170.666667 362.666667 170.666667s170.666667 74.666667 170.666666 166.4v352c0 68.266667 57.6 123.733333 128 123.733333s128-55.466667 128-123.733333V356.266667h42.666667v330.666666c0 91.733333-76.8 166.4-170.666667 166.4z" p-id="4668"></path><path d="M213.333333 853.333333c-59.733333 0-106.666667-46.933333-106.666666-106.666666s46.933333-106.666667 106.666666-106.666667 106.666667 46.933333 106.666667 106.666667-46.933333 106.666667-106.666667 106.666666z m0-170.666666c-36.266667 0-64 27.733333-64 64s27.733333 64 64 64 64-27.733333 64-64-27.733333-64-64-64zM810.666667 384c-59.733333 0-106.666667-46.933333-106.666667-106.666667s46.933333-106.666667 106.666667-106.666666 106.666667 46.933333 106.666666 106.666666-46.933333 106.666667-106.666666 106.666667z m0-170.666667c-36.266667 0-64 27.733333-64 64s27.733333 64 64 64 64-27.733333 64-64-27.733333-64-64-64z" p-id="4669"></path></svg>